<?xml version="1.0" encoding="utf-8" standalone="no"?>
<!DOCTYPE svg PUBLIC "-//W3C//DTD SVG 1.1//EN"
  "http://www.w3.org/Graphics/SVG/1.1/DTD/svg11.dtd">
<svg xmlns:xlink="http://www.w3.org/1999/xlink" width="460.8pt" height="345.6pt" viewBox="0 0 460.8 345.6" xmlns="http://www.w3.org/2000/svg" version="1.1">
 <metadata>
  <rdf:RDF xmlns:dc="http://purl.org/dc/elements/1.1/" xmlns:cc="http://creativecommons.org/ns#" xmlns:rdf="http://www.w3.org/1999/02/22-rdf-syntax-ns#">
   <cc:Work>
    <dc:type rdf:resource="http://purl.org/dc/dcmitype/StillImage"/>
    <dc:date>2025-11-16T17:09:08.744500</dc:date>
    <dc:format>image/svg+xml</dc:format>
    <dc:creator>
     <cc:Agent>
      <dc:title>Matplotlib v3.5.1, https://matplotlib.org/</dc:title>
     </cc:Agent>
    </dc:creator>
   </cc:Work>
  </rdf:RDF>
 </metadata>
 <defs>
  <style type="text/css">*{stroke-linejoin: round; stroke-linecap: butt}</style>
 </defs>
 <g id="figure_1">
  <g id="patch_1">
   <path d="M 0 345.6 
L 460.8 345.6 
L 460.8 0 
L 0 0 
z
" style="fill: #ffffff"/>
  </g>
  <g id="axes_1">
   <g id="patch_2">
    <path d="M 22.69 315.44 
L 453.192 315.44 
L 453.192 25.56 
L 22.69 25.56 
z
" style="fill: #ffffff"/>
   </g>
   <g id="line2d_1">
    <path d="M 36.781228 146.010823 
L 91.009334 107.16252 
L 159.328668 54.53222 
L 252.032228 36.202732 
L 344.735788 54.294929 
L 437.439347 36.125214 
" clip-path="url(#p6cb4a83b9f)" style="fill: none; stroke: #f5deb3; stroke-width: 10; stroke-linecap: square"/>
    <defs>
     <path id="mb8e8ed340f" d="M -0 17.67767 
L 10.606602 0 
L 0 -17.67767 
L -10.606602 -0 
z
" style="stroke: #f5deb3; stroke-linejoin: miter"/>
    </defs>
    <g clip-path="url(#p6cb4a83b9f)">
     <use xlink:href="#mb8e8ed340f" x="36.781228" y="146.010823" style="fill: #f5deb3; stroke: #f5deb3; stroke-linejoin: miter"/>
     <use xlink:href="#mb8e8ed340f" x="91.009334" y="107.16252" style="fill: #f5deb3; stroke: #f5deb3; stroke-linejoin: miter"/>
     <use xlink:href="#mb8e8ed340f" x="159.328668" y="54.53222" style="fill: #f5deb3; stroke: #f5deb3; stroke-linejoin: miter"/>
     <use xlink:href="#mb8e8ed340f" x="252.032228" y="36.202732" style="fill: #f5deb3; stroke: #f5deb3; stroke-linejoin: miter"/>
     <use xlink:href="#mb8e8ed340f" x="344.735788" y="54.294929" style="fill: #f5deb3; stroke: #f5deb3; stroke-linejoin: miter"/>
     <use xlink:href="#mb8e8ed340f" x="437.439347" y="36.125214" style="fill: #f5deb3; stroke: #f5deb3; stroke-linejoin: miter"/>
    </g>
   </g>
   <g id="matplotlib.axis_1">
    <g id="xtick_1">
     <g id="line2d_2">
      <defs>
       <path id="m32a6b998d4" d="M 0 0 
L 0 3.5 
" style="stroke: #000000; stroke-width: 0.8"/>
      </defs>
      <g>
       <use xlink:href="#m32a6b998d4" x="36.781228" y="315.44" style="stroke: #000000; stroke-width: 0.8"/>
      </g>
     </g>
     <g id="text_1">
      <!-- 2 -->
      <g transform="translate(30.418728 337.636875)scale(0.2 -0.2)">
       <defs>
        <path id="DejaVuSans-32" d="M 1228 531 
L 3431 531 
L 3431 0 
L 469 0 
L 469 531 
Q 828 903 1448 1529 
Q 2069 2156 2228 2338 
Q 2531 2678 2651 2914 
Q 2772 3150 2772 3378 
Q 2772 3750 2511 3984 
Q 2250 4219 1831 4219 
Q 1534 4219 1204 4116 
Q 875 4013 500 3803 
L 500 4441 
Q 881 4594 1212 4672 
Q 1544 4750 1819 4750 
Q 2544 4750 2975 4387 
Q 3406 4025 3406 3419 
Q 3406 3131 3298 2873 
Q 3191 2616 2906 2266 
Q 2828 2175 2409 1742 
Q 1991 1309 1228 531 
z
" transform="scale(0.015625)"/>
       </defs>
       <use xlink:href="#DejaVuSans-32"/>
      </g>
     </g>
    </g>
    <g id="xtick_2">
     <g id="line2d_3">
      <g>
       <use xlink:href="#m32a6b998d4" x="91.009334" y="315.44" style="stroke: #000000; stroke-width: 0.8"/>
      </g>
     </g>
     <g id="text_2">
      <!-- 3 -->
      <g transform="translate(84.646834 337.636875)scale(0.2 -0.2)">
       <defs>
        <path id="DejaVuSans-33" d="M 2597 2516 
Q 3050 2419 3304 2112 
Q 3559 1806 3559 1356 
Q 3559 666 3084 287 
Q 2609 -91 1734 -91 
Q 1441 -91 1130 -33 
Q 819 25 488 141 
L 488 750 
Q 750 597 1062 519 
Q 1375 441 1716 441 
Q 2309 441 2620 675 
Q 2931 909 2931 1356 
Q 2931 1769 2642 2001 
Q 2353 2234 1838 2234 
L 1294 2234 
L 1294 2753 
L 1863 2753 
Q 2328 2753 2575 2939 
Q 2822 3125 2822 3475 
Q 2822 3834 2567 4026 
Q 2313 4219 1838 4219 
Q 1578 4219 1281 4162 
Q 984 4106 628 3988 
L 628 4550 
Q 988 4650 1302 4700 
Q 1616 4750 1894 4750 
Q 2613 4750 3031 4423 
Q 3450 4097 3450 3541 
Q 3450 3153 3228 2886 
Q 3006 2619 2597 2516 
z
" transform="scale(0.015625)"/>
       </defs>
       <use xlink:href="#DejaVuSans-33"/>
      </g>
     </g>
    </g>
    <g id="xtick_3">
     <g id="line2d_4">
      <g>
       <use xlink:href="#m32a6b998d4" x="159.328668" y="315.44" style="stroke: #000000; stroke-width: 0.8"/>
      </g>
     </g>
     <g id="text_3">
      <!-- 5 -->
      <g transform="translate(152.966168 337.636875)scale(0.2 -0.2)">
       <defs>
        <path id="DejaVuSans-35" d="M 691 4666 
L 3169 4666 
L 3169 4134 
L 1269 4134 
L 1269 2991 
Q 1406 3038 1543 3061 
Q 1681 3084 1819 3084 
Q 2600 3084 3056 2656 
Q 3513 2228 3513 1497 
Q 3513 744 3044 326 
Q 2575 -91 1722 -91 
Q 1428 -91 1123 -41 
Q 819 9 494 109 
L 494 744 
Q 775 591 1075 516 
Q 1375 441 1709 441 
Q 2250 441 2565 725 
Q 2881 1009 2881 1497 
Q 2881 1984 2565 2268 
Q 2250 2553 1709 2553 
Q 1456 2553 1204 2497 
Q 953 2441 691 2322 
L 691 4666 
z
" transform="scale(0.015625)"/>
       </defs>
       <use xlink:href="#DejaVuSans-35"/>
      </g>
     </g>
    </g>
    <g id="xtick_4">
     <g id="line2d_5">
      <g>
       <use xlink:href="#m32a6b998d4" x="252.032228" y="315.44" style="stroke: #000000; stroke-width: 0.8"/>
      </g>
     </g>
     <g id="text_4">
      <!-- 10 -->
      <g transform="translate(239.307228 337.636875)scale(0.2 -0.2)">
       <defs>
        <path id="DejaVuSans-31" d="M 794 531 
L 1825 531 
L 1825 4091 
L 703 3866 
L 703 4441 
L 1819 4666 
L 2450 4666 
L 2450 531 
L 3481 531 
L 3481 0 
L 794 0 
L 794 531 
z
" transform="scale(0.015625)"/>
        <path id="DejaVuSans-30" d="M 2034 4250 
Q 1547 4250 1301 3770 
Q 1056 3291 1056 2328 
Q 1056 1369 1301 889 
Q 1547 409 2034 409 
Q 2525 409 2770 889 
Q 3016 1369 3016 2328 
Q 3016 3291 2770 3770 
Q 2525 4250 2034 4250 
z
M 2034 4750 
Q 2819 4750 3233 4129 
Q 3647 3509 3647 2328 
Q 3647 1150 3233 529 
Q 2819 -91 2034 -91 
Q 1250 -91 836 529 
Q 422 1150 422 2328 
Q 422 3509 836 4129 
Q 1250 4750 2034 4750 
z
" transform="scale(0.015625)"/>
       </defs>
       <use xlink:href="#DejaVuSans-31"/>
       <use xlink:href="#DejaVuSans-30" x="63.623047"/>
      </g>
     </g>
    </g>
    <g id="xtick_5">
     <g id="line2d_6">
      <g>
       <use xlink:href="#m32a6b998d4" x="344.735788" y="315.44" style="stroke: #000000; stroke-width: 0.8"/>
      </g>
     </g>
     <g id="text_5">
      <!-- 20 -->
      <g transform="translate(332.010788 337.636875)scale(0.2 -0.2)">
       <use xlink:href="#DejaVuSans-32"/>
       <use xlink:href="#DejaVuSans-30" x="63.623047"/>
      </g>
     </g>
    </g>
    <g id="xtick_6">
     <g id="line2d_7">
      <g>
       <use xlink:href="#m32a6b998d4" x="437.439347" y="315.44" style="stroke: #000000; stroke-width: 0.8"/>
      </g>
     </g>
     <g id="text_6">
      <!-- 40 -->
      <g transform="translate(424.714347 337.636875)scale(0.2 -0.2)">
       <defs>
        <path id="DejaVuSans-34" d="M 2419 4116 
L 825 1625 
L 2419 1625 
L 2419 4116 
z
M 2253 4666 
L 3047 4666 
L 3047 1625 
L 3713 1625 
L 3713 1100 
L 3047 1100 
L 3047 0 
L 2419 0 
L 2419 1100 
L 313 1100 
L 313 1709 
L 2253 4666 
z
" transform="scale(0.015625)"/>
       </defs>
       <use xlink:href="#DejaVuSans-34"/>
       <use xlink:href="#DejaVuSans-30" x="63.623047"/>
      </g>
     </g>
    </g>
    <g id="xtick_7">
     <g id="line2d_8">
      <defs>
       <path id="m2cb4dc86a9" d="M 0 0 
L 0 2 
" style="stroke: #000000; stroke-width: 0.6"/>
      </defs>
      <g>
       <use xlink:href="#m2cb4dc86a9" x="129.484788" y="315.44" style="stroke: #000000; stroke-width: 0.6"/>
      </g>
     </g>
    </g>
    <g id="xtick_8">
     <g id="line2d_9">
      <g>
       <use xlink:href="#m2cb4dc86a9" x="183.712894" y="315.44" style="stroke: #000000; stroke-width: 0.6"/>
      </g>
     </g>
    </g>
    <g id="xtick_9">
     <g id="line2d_10">
      <g>
       <use xlink:href="#m2cb4dc86a9" x="204.329463" y="315.44" style="stroke: #000000; stroke-width: 0.6"/>
      </g>
     </g>
    </g>
    <g id="xtick_10">
     <g id="line2d_11">
      <g>
       <use xlink:href="#m2cb4dc86a9" x="222.188347" y="315.44" style="stroke: #000000; stroke-width: 0.6"/>
      </g>
     </g>
    </g>
    <g id="xtick_11">
     <g id="line2d_12">
      <g>
       <use xlink:href="#m2cb4dc86a9" x="237.941" y="315.44" style="stroke: #000000; stroke-width: 0.6"/>
      </g>
     </g>
    </g>
    <g id="xtick_12">
     <g id="line2d_13">
      <g>
       <use xlink:href="#m2cb4dc86a9" x="398.963894" y="315.44" style="stroke: #000000; stroke-width: 0.6"/>
      </g>
     </g>
    </g>
   </g>
   <g id="matplotlib.axis_2">
    <g id="ytick_1">
     <g id="line2d_14">
      <path d="M 22.69 268.070093 
L 453.192 268.070093 
" clip-path="url(#p6cb4a83b9f)" style="fill: none; stroke: #b0b0b0; stroke-width: 0.8; stroke-linecap: square"/>
     </g>
     <g id="line2d_15">
      <defs>
       <path id="m7387a81cb6" d="M 0 0 
L -3.5 0 
" style="stroke: #000000; stroke-width: 0.8"/>
      </defs>
      <g>
       <use xlink:href="#m7387a81cb6" x="22.69" y="268.070093" style="stroke: #000000; stroke-width: 0.8"/>
      </g>
     </g>
     <g id="text_7">
      <!-- 1 -->
      <g transform="translate(2.965 275.66853)scale(0.2 -0.2)">
       <use xlink:href="#DejaVuSans-31"/>
      </g>
     </g>
    </g>
    <g id="ytick_2">
     <g id="line2d_16">
      <path d="M 22.69 189.120248 
L 453.192 189.120248 
" clip-path="url(#p6cb4a83b9f)" style="fill: none; stroke: #b0b0b0; stroke-width: 0.8; stroke-linecap: square"/>
     </g>
     <g id="line2d_17">
      <g>
       <use xlink:href="#m7387a81cb6" x="22.69" y="189.120248" style="stroke: #000000; stroke-width: 0.8"/>
      </g>
     </g>
     <g id="text_8">
      <!-- 3 -->
      <g transform="translate(2.965 196.718685)scale(0.2 -0.2)">
       <use xlink:href="#DejaVuSans-33"/>
      </g>
     </g>
    </g>
    <g id="ytick_3">
     <g id="line2d_18">
      <path d="M 22.69 110.170402 
L 453.192 110.170402 
" clip-path="url(#p6cb4a83b9f)" style="fill: none; stroke: #b0b0b0; stroke-width: 0.8; stroke-linecap: square"/>
     </g>
     <g id="line2d_19">
      <g>
       <use xlink:href="#m7387a81cb6" x="22.69" y="110.170402" style="stroke: #000000; stroke-width: 0.8"/>
      </g>
     </g>
     <g id="text_9">
      <!-- 5 -->
      <g transform="translate(2.965 117.76884)scale(0.2 -0.2)">
       <use xlink:href="#DejaVuSans-35"/>
      </g>
     </g>
    </g>
    <g id="ytick_4">
     <g id="line2d_20">
      <path d="M 22.69 31.220557 
L 453.192 31.220557 
" clip-path="url(#p6cb4a83b9f)" style="fill: none; stroke: #b0b0b0; stroke-width: 0.8; stroke-linecap: square"/>
     </g>
     <g id="line2d_21">
      <g>
       <use xlink:href="#m7387a81cb6" x="22.69" y="31.220557" style="stroke: #000000; stroke-width: 0.8"/>
      </g>
     </g>
     <g id="text_10">
      <!-- 7 -->
      <g transform="translate(2.965 38.818995)scale(0.2 -0.2)">
       <defs>
        <path id="DejaVuSans-37" d="M 525 4666 
L 3525 4666 
L 3525 4397 
L 1831 0 
L 1172 0 
L 2766 4134 
L 525 4134 
L 525 4666 
z
" transform="scale(0.015625)"/>
       </defs>
       <use xlink:href="#DejaVuSans-37"/>
      </g>
     </g>
    </g>
   </g>
   <g id="line2d_22"/>
   <g id="line2d_23">
    <defs>
     <path id="mbe60dd83a6" d="M 0 10 
C 2.652031 10 5.195799 8.946337 7.071068 7.071068 
C 8.946337 5.195799 10 2.652031 10 0 
C 10 -2.652031 8.946337 -5.195799 7.071068 -7.071068 
C 5.195799 -8.946337 2.652031 -10 0 -10 
C -2.652031 -10 -5.195799 -8.946337 -7.071068 -7.071068 
C -8.946337 -5.195799 -10 -2.652031 -10 0 
C -10 2.652031 -8.946337 5.195799 -7.071068 7.071068 
C -5.195799 8.946337 -2.652031 10 0 10 
z
" style="stroke: #1874b4"/>
    </defs>
    <g clip-path="url(#p6cb4a83b9f)">
     <use xlink:href="#mbe60dd83a6" x="36.781228" y="197.608394" style="fill-opacity: 0; stroke: #1874b4"/>
     <use xlink:href="#mbe60dd83a6" x="91.009334" y="199.265822" style="fill-opacity: 0; stroke: #1874b4"/>
     <use xlink:href="#mbe60dd83a6" x="159.328668" y="192.975791" style="fill-opacity: 0; stroke: #1874b4"/>
     <use xlink:href="#mbe60dd83a6" x="252.032228" y="192.436934" style="fill-opacity: 0; stroke: #1874b4"/>
     <use xlink:href="#mbe60dd83a6" x="344.735788" y="195.361586" style="fill-opacity: 0; stroke: #1874b4"/>
    </g>
   </g>
   <g id="line2d_24"/>
   <g id="line2d_25">
    <defs>
     <path id="mbc9e4ee0f9" d="M -0 14.142136 
L 8.485281 0 
L -0 -14.142136 
L -8.485281 -0 
z
" style="stroke: #ff7d0b; stroke-linejoin: miter"/>
    </defs>
    <g clip-path="url(#p6cb4a83b9f)">
     <use xlink:href="#mbc9e4ee0f9" x="36.781228" y="165.245032" style="fill-opacity: 0; stroke: #ff7d0b; stroke-linejoin: miter"/>
     <use xlink:href="#mbc9e4ee0f9" x="91.009334" y="165.28127" style="fill-opacity: 0; stroke: #ff7d0b; stroke-linejoin: miter"/>
     <use xlink:href="#mbc9e4ee0f9" x="159.328668" y="165.310315" style="fill-opacity: 0; stroke: #ff7d0b; stroke-linejoin: miter"/>
     <use xlink:href="#mbc9e4ee0f9" x="252.032228" y="165.332132" style="fill-opacity: 0; stroke: #ff7d0b; stroke-linejoin: miter"/>
     <use xlink:href="#mbc9e4ee0f9" x="344.735788" y="165.34305" style="fill-opacity: 0; stroke: #ff7d0b; stroke-linejoin: miter"/>
    </g>
   </g>
   <g id="line2d_26"/>
   <g id="line2d_27">
    <defs>
     <path id="m02f2d8a3c8" d="M 0 -10 
L -2.24514 -3.09017 
L -9.510565 -3.09017 
L -3.632713 1.18034 
L -5.877853 8.09017 
L -0 3.81966 
L 5.877853 8.09017 
L 3.632713 1.18034 
L 9.510565 -3.09017 
L 2.24514 -3.09017 
z
" style="stroke: #22a022; stroke-linejoin: bevel"/>
    </defs>
    <g clip-path="url(#p6cb4a83b9f)">
     <use xlink:href="#m02f2d8a3c8" x="36.781228" y="241.722439" style="fill-opacity: 0; stroke: #22a022; stroke-linejoin: bevel"/>
     <use xlink:href="#m02f2d8a3c8" x="91.009334" y="247.429495" style="fill-opacity: 0; stroke: #22a022; stroke-linejoin: bevel"/>
     <use xlink:href="#m02f2d8a3c8" x="159.328668" y="241.61219" style="fill-opacity: 0; stroke: #22a022; stroke-linejoin: bevel"/>
     <use xlink:href="#m02f2d8a3c8" x="252.032228" y="239.190683" style="fill-opacity: 0; stroke: #22a022; stroke-linejoin: bevel"/>
     <use xlink:href="#m02f2d8a3c8" x="344.735788" y="230.544907" style="fill-opacity: 0; stroke: #22a022; stroke-linejoin: bevel"/>
    </g>
   </g>
   <g id="line2d_28">
    <path d="M 36.781228 169.65204 
" clip-path="url(#p6cb4a83b9f)" style="fill: none; stroke: #d61e1f; stroke-width: 3; stroke-linecap: square"/>
    <defs>
     <path id="m21656343c1" d="M -2.666667 8 
L 2.666667 8 
L 2.666667 2.666667 
L 8 2.666667 
L 8 -2.666667 
L 2.666667 -2.666667 
L 2.666667 -8 
L -2.666667 -8 
L -2.666667 -2.666667 
L -8 -2.666667 
L -8 2.666667 
L -2.666667 2.666667 
z
" style="stroke: #d61e1f; stroke-width: 1.5; stroke-linejoin: miter"/>
    </defs>
    <g clip-path="url(#p6cb4a83b9f)">
     <use xlink:href="#m21656343c1" x="36.781228" y="169.65204" style="fill-opacity: 0; stroke: #d61e1f; stroke-width: 1.5; stroke-linejoin: miter"/>
    </g>
   </g>
   <g id="line2d_29"/>
   <g id="line2d_30">
    <defs>
     <path id="me80459f05b" d="M -3.333333 10 
L 3.333333 10 
L 3.333333 3.333333 
L 10 3.333333 
L 10 -3.333333 
L 3.333333 -3.333333 
L 3.333333 -10 
L -3.333333 -10 
L -3.333333 -3.333333 
L -10 -3.333333 
L -10 3.333333 
L -3.333333 3.333333 
z
" style="stroke: #d61e1f; stroke-linejoin: miter"/>
    </defs>
    <g clip-path="url(#p6cb4a83b9f)">
     <use xlink:href="#me80459f05b" x="36.781228" y="169.583339" style="fill-opacity: 0; stroke: #d61e1f; stroke-linejoin: miter"/>
     <use xlink:href="#me80459f05b" x="91.009334" y="165.353976" style="fill-opacity: 0; stroke: #d61e1f; stroke-linejoin: miter"/>
     <use xlink:href="#me80459f05b" x="159.328668" y="165.353976" style="fill-opacity: 0; stroke: #d61e1f; stroke-linejoin: miter"/>
     <use xlink:href="#me80459f05b" x="252.032228" y="165.353976" style="fill-opacity: 0; stroke: #d61e1f; stroke-linejoin: miter"/>
     <use xlink:href="#me80459f05b" x="344.735788" y="165.353976" style="fill-opacity: 0; stroke: #d61e1f; stroke-linejoin: miter"/>
    </g>
   </g>
   <g id="line2d_31"/>
   <g id="line2d_32">
    <defs>
     <path id="m2b6a88ecbb" d="M 0 -10 
L -9.510565 -3.09017 
L -5.877853 8.09017 
L 5.877853 8.09017 
L 9.510565 -3.09017 
z
" style="stroke: #8a52bd; stroke-linejoin: miter"/>
    </defs>
    <g clip-path="url(#p6cb4a83b9f)">
     <use xlink:href="#m2b6a88ecbb" x="36.781228" y="182.8689" style="fill-opacity: 0; stroke: #8a52bd; stroke-linejoin: miter"/>
     <use xlink:href="#m2b6a88ecbb" x="91.009334" y="166.255907" style="fill-opacity: 0; stroke: #8a52bd; stroke-linejoin: miter"/>
     <use xlink:href="#m2b6a88ecbb" x="159.328668" y="165.33256" style="fill-opacity: 0; stroke: #8a52bd; stroke-linejoin: miter"/>
     <use xlink:href="#m2b6a88ecbb" x="252.032228" y="165.33256" style="fill-opacity: 0; stroke: #8a52bd; stroke-linejoin: miter"/>
     <use xlink:href="#m2b6a88ecbb" x="344.735788" y="165.33256" style="fill-opacity: 0; stroke: #8a52bd; stroke-linejoin: miter"/>
    </g>
   </g>
   <g id="line2d_33"/>
   <g id="line2d_34">
    <defs>
     <path id="m1ca4e09fca" d="M -0 10 
L 10 -10 
L -10 -10 
z
" style="stroke: #8c493c; stroke-linejoin: miter"/>
    </defs>
    <g clip-path="url(#p6cb4a83b9f)">
     <use xlink:href="#m1ca4e09fca" x="36.781228" y="165.245032" style="fill-opacity: 0; stroke: #8c493c; stroke-linejoin: miter"/>
     <use xlink:href="#m1ca4e09fca" x="91.009334" y="165.28127" style="fill-opacity: 0; stroke: #8c493c; stroke-linejoin: miter"/>
     <use xlink:href="#m1ca4e09fca" x="159.328668" y="165.310315" style="fill-opacity: 0; stroke: #8c493c; stroke-linejoin: miter"/>
     <use xlink:href="#m1ca4e09fca" x="252.032228" y="165.332132" style="fill-opacity: 0; stroke: #8c493c; stroke-linejoin: miter"/>
     <use xlink:href="#m1ca4e09fca" x="344.735788" y="165.34305" style="fill-opacity: 0; stroke: #8c493c; stroke-linejoin: miter"/>
    </g>
   </g>
   <g id="line2d_35">
    <path d="M 36.781228 129.647785 
L 91.009334 128.010417 
" clip-path="url(#p6cb4a83b9f)" style="fill: none; stroke: #e35fbb; stroke-width: 2; stroke-linecap: square"/>
    <defs>
     <path id="md6520929d9" d="M -4 8 
L 0 4 
L 4 8 
L 8 4 
L 4 0 
L 8 -4 
L 4 -8 
L 0 -4 
L -4 -8 
L -8 -4 
L -4 0 
L -8 4 
z
" style="stroke: #e35fbb; stroke-linejoin: miter"/>
    </defs>
    <g clip-path="url(#p6cb4a83b9f)">
     <use xlink:href="#md6520929d9" x="36.781228" y="129.647785" style="fill-opacity: 0; stroke: #e35fbb; stroke-linejoin: miter"/>
     <use xlink:href="#md6520929d9" x="91.009334" y="128.010417" style="fill-opacity: 0; stroke: #e35fbb; stroke-linejoin: miter"/>
    </g>
   </g>
   <g id="line2d_36">
    <path d="M 91.009334 128.010417 
" clip-path="url(#p6cb4a83b9f)" style="fill: none; stroke: #e35fbb; stroke-width: 2; stroke-linecap: square"/>
    <g clip-path="url(#p6cb4a83b9f)">
     <use xlink:href="#md6520929d9" x="91.009334" y="128.010417" style="fill-opacity: 0; stroke: #e35fbb; stroke-linejoin: miter"/>
    </g>
   </g>
   <g id="line2d_37"/>
   <g id="line2d_38">
    <defs>
     <path id="m9cb4ae7654" d="M -5 10 
L 0 5 
L 5 10 
L 10 5 
L 5 0 
L 10 -5 
L 5 -10 
L 0 -5 
L -5 -10 
L -10 -5 
L -5 0 
L -10 5 
z
" style="stroke: #e35fbb; stroke-linejoin: miter"/>
    </defs>
    <g clip-path="url(#p6cb4a83b9f)">
     <use xlink:href="#m9cb4ae7654" x="36.781228" y="154.292774" style="fill-opacity: 0; stroke: #e35fbb; stroke-linejoin: miter"/>
     <use xlink:href="#m9cb4ae7654" x="91.009334" y="154.311894" style="fill-opacity: 0; stroke: #e35fbb; stroke-linejoin: miter"/>
     <use xlink:href="#m9cb4ae7654" x="159.328668" y="154.327206" style="fill-opacity: 0; stroke: #e35fbb; stroke-linejoin: miter"/>
     <use xlink:href="#m9cb4ae7654" x="252.032228" y="154.338699" style="fill-opacity: 0; stroke: #e35fbb; stroke-linejoin: miter"/>
     <use xlink:href="#m9cb4ae7654" x="344.735788" y="154.344448" style="fill-opacity: 0; stroke: #e35fbb; stroke-linejoin: miter"/>
    </g>
   </g>
   <g id="line2d_39"/>
   <g id="line2d_40">
    <defs>
     <path id="mdb22b636a6" d="M 0 -10 
L -10 10 
L 10 10 
z
" style="stroke: #11bdcf; stroke-linejoin: miter"/>
    </defs>
    <g clip-path="url(#p6cb4a83b9f)">
     <use xlink:href="#mdb22b636a6" x="36.781228" y="165.245032" style="fill-opacity: 0; stroke: #11bdcf; stroke-linejoin: miter"/>
     <use xlink:href="#mdb22b636a6" x="91.009334" y="165.28127" style="fill-opacity: 0; stroke: #11bdcf; stroke-linejoin: miter"/>
     <use xlink:href="#mdb22b636a6" x="159.328668" y="165.310315" style="fill-opacity: 0; stroke: #11bdcf; stroke-linejoin: miter"/>
     <use xlink:href="#mdb22b636a6" x="252.032228" y="165.332132" style="fill-opacity: 0; stroke: #11bdcf; stroke-linejoin: miter"/>
     <use xlink:href="#mdb22b636a6" x="344.735788" y="165.34305" style="fill-opacity: 0; stroke: #11bdcf; stroke-linejoin: miter"/>
    </g>
   </g>
   <g id="line2d_41">
    <path d="M 36.781228 134.552077 
" clip-path="url(#p6cb4a83b9f)" style="fill: none; stroke: #7f7f7f; stroke-width: 2; stroke-linecap: square"/>
    <defs>
     <path id="ma421d33858" d="M -0 8.485281 
L 8.485281 0 
L 0 -8.485281 
L -8.485281 -0 
z
" style="stroke: #7f7f7f; stroke-linejoin: miter"/>
    </defs>
    <g clip-path="url(#p6cb4a83b9f)">
     <use xlink:href="#ma421d33858" x="36.781228" y="134.552077" style="fill-opacity: 0; stroke: #7f7f7f; stroke-linejoin: miter"/>
    </g>
   </g>
   <g id="line2d_42"/>
   <g id="line2d_43">
    <defs>
     <path id="mbd870a38a6" d="M -0 14.142136 
L 14.142136 0 
L 0 -14.142136 
L -14.142136 -0 
z
" style="stroke: #7f7f7f; stroke-linejoin: miter"/>
    </defs>
    <g clip-path="url(#p6cb4a83b9f)">
     <use xlink:href="#mbd870a38a6" x="36.781228" y="169.430439" style="fill-opacity: 0; stroke: #7f7f7f; stroke-linejoin: miter"/>
     <use xlink:href="#mbd870a38a6" x="91.009334" y="165.33256" style="fill-opacity: 0; stroke: #7f7f7f; stroke-linejoin: miter"/>
     <use xlink:href="#mbd870a38a6" x="159.328668" y="165.33256" style="fill-opacity: 0; stroke: #7f7f7f; stroke-linejoin: miter"/>
     <use xlink:href="#mbd870a38a6" x="252.032228" y="165.33256" style="fill-opacity: 0; stroke: #7f7f7f; stroke-linejoin: miter"/>
     <use xlink:href="#mbd870a38a6" x="344.735788" y="165.33256" style="fill-opacity: 0; stroke: #7f7f7f; stroke-linejoin: miter"/>
    </g>
   </g>
   <g id="line2d_44">
    <path d="M 36.781228 150.232585 
L 91.009334 118.959228 
" clip-path="url(#p6cb4a83b9f)" style="fill: none; stroke: #bcbd1a; stroke-width: 2; stroke-linecap: square"/>
    <defs>
     <path id="m5e624b0af1" d="M -8 -0 
L 8 8 
L 8 -8 
z
" style="stroke: #bcbd1a; stroke-linejoin: miter"/>
    </defs>
    <g clip-path="url(#p6cb4a83b9f)">
     <use xlink:href="#m5e624b0af1" x="36.781228" y="150.232585" style="fill-opacity: 0; stroke: #bcbd1a; stroke-linejoin: miter"/>
     <use xlink:href="#m5e624b0af1" x="91.009334" y="118.959228" style="fill-opacity: 0; stroke: #bcbd1a; stroke-linejoin: miter"/>
    </g>
   </g>
   <g id="line2d_45">
    <path d="M 91.009334 118.959228 
" clip-path="url(#p6cb4a83b9f)" style="fill: none; stroke: #bcbd1a; stroke-width: 2; stroke-linecap: square"/>
    <g clip-path="url(#p6cb4a83b9f)">
     <use xlink:href="#m5e624b0af1" x="91.009334" y="118.959228" style="fill-opacity: 0; stroke: #bcbd1a; stroke-linejoin: miter"/>
    </g>
   </g>
   <g id="line2d_46"/>
   <g id="line2d_47">
    <defs>
     <path id="m1a935556d4" d="M -10 -0 
L 10 10 
L 10 -10 
z
" style="stroke: #bcbd1a; stroke-linejoin: miter"/>
    </defs>
    <g clip-path="url(#p6cb4a83b9f)">
     <use xlink:href="#m1a935556d4" x="36.781228" y="165.351833" style="fill-opacity: 0; stroke: #bcbd1a; stroke-linejoin: miter"/>
     <use xlink:href="#m1a935556d4" x="91.009334" y="165.351119" style="fill-opacity: 0; stroke: #bcbd1a; stroke-linejoin: miter"/>
     <use xlink:href="#m1a935556d4" x="159.328668" y="165.352262" style="fill-opacity: 0; stroke: #bcbd1a; stroke-linejoin: miter"/>
     <use xlink:href="#m1a935556d4" x="252.032228" y="165.353119" style="fill-opacity: 0; stroke: #bcbd1a; stroke-linejoin: miter"/>
     <use xlink:href="#m1a935556d4" x="344.735788" y="165.353547" style="fill-opacity: 0; stroke: #bcbd1a; stroke-linejoin: miter"/>
    </g>
   </g>
   <g id="line2d_48"/>
   <g id="line2d_49">
    <path d="M 40.057279 346.6 
L 461.8 292.539228 
" clip-path="url(#p6cb4a83b9f)" style="fill: none; stroke-dasharray: 0.5,0.825; stroke-dashoffset: 0; stroke: #000000; stroke-width: 0.5"/>
   </g>
   <g id="line2d_50">
    <path d="M -1 272.913051 
L 461.8 213.589383 
" clip-path="url(#p6cb4a83b9f)" style="fill: none; stroke-dasharray: 0.5,0.825; stroke-dashoffset: 0; stroke: #000000; stroke-width: 0.5"/>
   </g>
   <g id="line2d_51">
    <path d="M -1 193.963206 
L 461.8 134.639537 
" clip-path="url(#p6cb4a83b9f)" style="fill: none; stroke-dasharray: 0.5,0.825; stroke-dashoffset: 0; stroke: #000000; stroke-width: 0.5"/>
   </g>
   <g id="line2d_52">
    <path d="M -1 115.013361 
L 461.8 55.689692 
" clip-path="url(#p6cb4a83b9f)" style="fill: none; stroke-dasharray: 0.5,0.825; stroke-dashoffset: 0; stroke: #000000; stroke-width: 0.5"/>
   </g>
   <g id="line2d_53">
    <path d="M -1 36.063515 
L 288.142518 -1 
" clip-path="url(#p6cb4a83b9f)" style="fill: none; stroke-dasharray: 0.5,0.825; stroke-dashoffset: 0; stroke: #000000; stroke-width: 0.5"/>
   </g>
   <g id="line2d_54"/>
   <g id="line2d_55">
    <defs>
     <path id="m1b77a66a8e" d="M 10 0 
L -10 -10 
L -10 10 
z
" style="stroke: #440154; stroke-linejoin: miter"/>
    </defs>
    <g clip-path="url(#p6cb4a83b9f)">
     <use xlink:href="#m1b77a66a8e" x="36.781228" y="165.268471" style="fill-opacity: 0; stroke: #440154; stroke-linejoin: miter"/>
     <use xlink:href="#m1b77a66a8e" x="91.009334" y="165.31117" style="fill-opacity: 0; stroke: #440154; stroke-linejoin: miter"/>
     <use xlink:href="#m1b77a66a8e" x="159.328668" y="165.319723" style="fill-opacity: 0; stroke: #440154; stroke-linejoin: miter"/>
     <use xlink:href="#m1b77a66a8e" x="252.032228" y="165.33256" style="fill-opacity: 0; stroke: #440154; stroke-linejoin: miter"/>
     <use xlink:href="#m1b77a66a8e" x="344.735788" y="165.33256" style="fill-opacity: 0; stroke: #440154; stroke-linejoin: miter"/>
    </g>
   </g>
   <g id="line2d_56">
    <path d="M 36.781228 139.065259 
" clip-path="url(#p6cb4a83b9f)" style="fill: none; stroke-dasharray: 7.4,3.2; stroke-dashoffset: 0; stroke: #2500bb; stroke-width: 2"/>
    <defs>
     <path id="mfe5bbd18bc" d="M 0 7 
C 1.856422 7 3.637059 6.262436 4.949747 4.949747 
C 6.262436 3.637059 7 1.856422 7 0 
C 7 -1.856422 6.262436 -3.637059 4.949747 -4.949747 
C 3.637059 -6.262436 1.856422 -7 0 -7 
C -1.856422 -7 -3.637059 -6.262436 -4.949747 -4.949747 
C -6.262436 -3.637059 -7 -1.856422 -7 0 
C -7 1.856422 -6.262436 3.637059 -4.949747 4.949747 
C -3.637059 6.262436 -1.856422 7 0 7 
z
" style="stroke: #2500bb"/>
    </defs>
    <g clip-path="url(#p6cb4a83b9f)">
     <use xlink:href="#mfe5bbd18bc" x="36.781228" y="139.065259" style="fill-opacity: 0; stroke: #2500bb"/>
    </g>
   </g>
   <g id="line2d_57"/>
   <g id="line2d_58">
    <defs>
     <path id="m6665657241" d="M 0 10 
C 2.652031 10 5.195799 8.946337 7.071068 7.071068 
C 8.946337 5.195799 10 2.652031 10 0 
C 10 -2.652031 8.946337 -5.195799 7.071068 -7.071068 
C 5.195799 -8.946337 2.652031 -10 0 -10 
C -2.652031 -10 -5.195799 -8.946337 -7.071068 -7.071068 
C -8.946337 -5.195799 -10 -2.652031 -10 0 
C -10 2.652031 -8.946337 5.195799 -7.071068 7.071068 
C -5.195799 8.946337 -2.652031 10 0 10 
z
" style="stroke: #2500bb"/>
    </defs>
    <g clip-path="url(#p6cb4a83b9f)">
     <use xlink:href="#m6665657241" x="36.781228" y="165.298349" style="fill-opacity: 0; stroke: #2500bb"/>
     <use xlink:href="#m6665657241" x="91.009334" y="165.285538" style="fill-opacity: 0; stroke: #2500bb"/>
     <use xlink:href="#m6665657241" x="159.328668" y="165.277002" style="fill-opacity: 0; stroke: #2500bb"/>
     <use xlink:href="#m6665657241" x="252.032228" y="165.276149" style="fill-opacity: 0; stroke: #2500bb"/>
     <use xlink:href="#m6665657241" x="344.735788" y="165.28255" style="fill-opacity: 0; stroke: #2500bb"/>
    </g>
   </g>
   <g id="patch_3">
    <path d="M 22.69 315.44 
L 22.69 25.56 
" style="fill: none; stroke: #000000; stroke-width: 0.8; stroke-linejoin: miter; stroke-linecap: square"/>
   </g>
   <g id="patch_4">
    <path d="M 453.192 315.44 
L 453.192 25.56 
" style="fill: none; stroke: #000000; stroke-width: 0.8; stroke-linejoin: miter; stroke-linecap: square"/>
   </g>
   <g id="patch_5">
    <path d="M 22.69 315.44 
L 453.192 315.44 
" style="fill: none; stroke: #000000; stroke-width: 0.8; stroke-linejoin: miter; stroke-linecap: square"/>
   </g>
   <g id="patch_6">
    <path d="M 22.69 25.56 
L 453.192 25.56 
" style="fill: none; stroke: #000000; stroke-width: 0.8; stroke-linejoin: miter; stroke-linecap: square"/>
   </g>
   <g id="text_11">
    <!-- 15 instances -->
    <g transform="translate(22.69 296.8515)scale(0.14 -0.14)">
     <defs>
      <path id="DejaVuSans-20" transform="scale(0.015625)"/>
      <path id="DejaVuSans-69" d="M 603 3500 
L 1178 3500 
L 1178 0 
L 603 0 
L 603 3500 
z
M 603 4863 
L 1178 4863 
L 1178 4134 
L 603 4134 
L 603 4863 
z
" transform="scale(0.015625)"/>
      <path id="DejaVuSans-6e" d="M 3513 2113 
L 3513 0 
L 2938 0 
L 2938 2094 
Q 2938 2591 2744 2837 
Q 2550 3084 2163 3084 
Q 1697 3084 1428 2787 
Q 1159 2491 1159 1978 
L 1159 0 
L 581 0 
L 581 3500 
L 1159 3500 
L 1159 2956 
Q 1366 3272 1645 3428 
Q 1925 3584 2291 3584 
Q 2894 3584 3203 3211 
Q 3513 2838 3513 2113 
z
" transform="scale(0.015625)"/>
      <path id="DejaVuSans-73" d="M 2834 3397 
L 2834 2853 
Q 2591 2978 2328 3040 
Q 2066 3103 1784 3103 
Q 1356 3103 1142 2972 
Q 928 2841 928 2578 
Q 928 2378 1081 2264 
Q 1234 2150 1697 2047 
L 1894 2003 
Q 2506 1872 2764 1633 
Q 3022 1394 3022 966 
Q 3022 478 2636 193 
Q 2250 -91 1575 -91 
Q 1294 -91 989 -36 
Q 684 19 347 128 
L 347 722 
Q 666 556 975 473 
Q 1284 391 1588 391 
Q 1994 391 2212 530 
Q 2431 669 2431 922 
Q 2431 1156 2273 1281 
Q 2116 1406 1581 1522 
L 1381 1569 
Q 847 1681 609 1914 
Q 372 2147 372 2553 
Q 372 3047 722 3315 
Q 1072 3584 1716 3584 
Q 2034 3584 2315 3537 
Q 2597 3491 2834 3397 
z
" transform="scale(0.015625)"/>
      <path id="DejaVuSans-74" d="M 1172 4494 
L 1172 3500 
L 2356 3500 
L 2356 3053 
L 1172 3053 
L 1172 1153 
Q 1172 725 1289 603 
Q 1406 481 1766 481 
L 2356 481 
L 2356 0 
L 1766 0 
Q 1100 0 847 248 
Q 594 497 594 1153 
L 594 3053 
L 172 3053 
L 172 3500 
L 594 3500 
L 594 4494 
L 1172 4494 
z
" transform="scale(0.015625)"/>
      <path id="DejaVuSans-61" d="M 2194 1759 
Q 1497 1759 1228 1600 
Q 959 1441 959 1056 
Q 959 750 1161 570 
Q 1363 391 1709 391 
Q 2188 391 2477 730 
Q 2766 1069 2766 1631 
L 2766 1759 
L 2194 1759 
z
M 3341 1997 
L 3341 0 
L 2766 0 
L 2766 531 
Q 2569 213 2275 61 
Q 1981 -91 1556 -91 
Q 1019 -91 701 211 
Q 384 513 384 1019 
Q 384 1609 779 1909 
Q 1175 2209 1959 2209 
L 2766 2209 
L 2766 2266 
Q 2766 2663 2505 2880 
Q 2244 3097 1772 3097 
Q 1472 3097 1187 3025 
Q 903 2953 641 2809 
L 641 3341 
Q 956 3463 1253 3523 
Q 1550 3584 1831 3584 
Q 2591 3584 2966 3190 
Q 3341 2797 3341 1997 
z
" transform="scale(0.015625)"/>
      <path id="DejaVuSans-63" d="M 3122 3366 
L 3122 2828 
Q 2878 2963 2633 3030 
Q 2388 3097 2138 3097 
Q 1578 3097 1268 2742 
Q 959 2388 959 1747 
Q 959 1106 1268 751 
Q 1578 397 2138 397 
Q 2388 397 2633 464 
Q 2878 531 3122 666 
L 3122 134 
Q 2881 22 2623 -34 
Q 2366 -91 2075 -91 
Q 1284 -91 818 406 
Q 353 903 353 1747 
Q 353 2603 823 3093 
Q 1294 3584 2113 3584 
Q 2378 3584 2631 3529 
Q 2884 3475 3122 3366 
z
" transform="scale(0.015625)"/>
      <path id="DejaVuSans-65" d="M 3597 1894 
L 3597 1613 
L 953 1613 
Q 991 1019 1311 708 
Q 1631 397 2203 397 
Q 2534 397 2845 478 
Q 3156 559 3463 722 
L 3463 178 
Q 3153 47 2828 -22 
Q 2503 -91 2169 -91 
Q 1331 -91 842 396 
Q 353 884 353 1716 
Q 353 2575 817 3079 
Q 1281 3584 2069 3584 
Q 2775 3584 3186 3129 
Q 3597 2675 3597 1894 
z
M 3022 2063 
Q 3016 2534 2758 2815 
Q 2500 3097 2075 3097 
Q 1594 3097 1305 2825 
Q 1016 2553 972 2059 
L 3022 2063 
z
" transform="scale(0.015625)"/>
     </defs>
     <use xlink:href="#DejaVuSans-31"/>
     <use xlink:href="#DejaVuSans-35" x="63.623047"/>
     <use xlink:href="#DejaVuSans-20" x="127.246094"/>
     <use xlink:href="#DejaVuSans-69" x="159.033203"/>
     <use xlink:href="#DejaVuSans-6e" x="186.816406"/>
     <use xlink:href="#DejaVuSans-73" x="250.195312"/>
     <use xlink:href="#DejaVuSans-74" x="302.294922"/>
     <use xlink:href="#DejaVuSans-61" x="341.503906"/>
     <use xlink:href="#DejaVuSans-6e" x="402.783203"/>
     <use xlink:href="#DejaVuSans-63" x="466.162109"/>
     <use xlink:href="#DejaVuSans-65" x="521.142578"/>
     <use xlink:href="#DejaVuSans-73" x="582.666016"/>
    </g>
    <!-- target Df: 1e-8 -->
    <g transform="translate(22.69 312.528437)scale(0.14 -0.14)">
     <defs>
      <path id="DejaVuSans-72" d="M 2631 2963 
Q 2534 3019 2420 3045 
Q 2306 3072 2169 3072 
Q 1681 3072 1420 2755 
Q 1159 2438 1159 1844 
L 1159 0 
L 581 0 
L 581 3500 
L 1159 3500 
L 1159 2956 
Q 1341 3275 1631 3429 
Q 1922 3584 2338 3584 
Q 2397 3584 2469 3576 
Q 2541 3569 2628 3553 
L 2631 2963 
z
" transform="scale(0.015625)"/>
      <path id="DejaVuSans-67" d="M 2906 1791 
Q 2906 2416 2648 2759 
Q 2391 3103 1925 3103 
Q 1463 3103 1205 2759 
Q 947 2416 947 1791 
Q 947 1169 1205 825 
Q 1463 481 1925 481 
Q 2391 481 2648 825 
Q 2906 1169 2906 1791 
z
M 3481 434 
Q 3481 -459 3084 -895 
Q 2688 -1331 1869 -1331 
Q 1566 -1331 1297 -1286 
Q 1028 -1241 775 -1147 
L 775 -588 
Q 1028 -725 1275 -790 
Q 1522 -856 1778 -856 
Q 2344 -856 2625 -561 
Q 2906 -266 2906 331 
L 2906 616 
Q 2728 306 2450 153 
Q 2172 0 1784 0 
Q 1141 0 747 490 
Q 353 981 353 1791 
Q 353 2603 747 3093 
Q 1141 3584 1784 3584 
Q 2172 3584 2450 3431 
Q 2728 3278 2906 2969 
L 2906 3500 
L 3481 3500 
L 3481 434 
z
" transform="scale(0.015625)"/>
      <path id="DejaVuSans-44" d="M 1259 4147 
L 1259 519 
L 2022 519 
Q 2988 519 3436 956 
Q 3884 1394 3884 2338 
Q 3884 3275 3436 3711 
Q 2988 4147 2022 4147 
L 1259 4147 
z
M 628 4666 
L 1925 4666 
Q 3281 4666 3915 4102 
Q 4550 3538 4550 2338 
Q 4550 1131 3912 565 
Q 3275 0 1925 0 
L 628 0 
L 628 4666 
z
" transform="scale(0.015625)"/>
      <path id="DejaVuSans-66" d="M 2375 4863 
L 2375 4384 
L 1825 4384 
Q 1516 4384 1395 4259 
Q 1275 4134 1275 3809 
L 1275 3500 
L 2222 3500 
L 2222 3053 
L 1275 3053 
L 1275 0 
L 697 0 
L 697 3053 
L 147 3053 
L 147 3500 
L 697 3500 
L 697 3744 
Q 697 4328 969 4595 
Q 1241 4863 1831 4863 
L 2375 4863 
z
" transform="scale(0.015625)"/>
      <path id="DejaVuSans-3a" d="M 750 794 
L 1409 794 
L 1409 0 
L 750 0 
L 750 794 
z
M 750 3309 
L 1409 3309 
L 1409 2516 
L 750 2516 
L 750 3309 
z
" transform="scale(0.015625)"/>
      <path id="DejaVuSans-2d" d="M 313 2009 
L 1997 2009 
L 1997 1497 
L 313 1497 
L 313 2009 
z
" transform="scale(0.015625)"/>
      <path id="DejaVuSans-38" d="M 2034 2216 
Q 1584 2216 1326 1975 
Q 1069 1734 1069 1313 
Q 1069 891 1326 650 
Q 1584 409 2034 409 
Q 2484 409 2743 651 
Q 3003 894 3003 1313 
Q 3003 1734 2745 1975 
Q 2488 2216 2034 2216 
z
M 1403 2484 
Q 997 2584 770 2862 
Q 544 3141 544 3541 
Q 544 4100 942 4425 
Q 1341 4750 2034 4750 
Q 2731 4750 3128 4425 
Q 3525 4100 3525 3541 
Q 3525 3141 3298 2862 
Q 3072 2584 2669 2484 
Q 3125 2378 3379 2068 
Q 3634 1759 3634 1313 
Q 3634 634 3220 271 
Q 2806 -91 2034 -91 
Q 1263 -91 848 271 
Q 434 634 434 1313 
Q 434 1759 690 2068 
Q 947 2378 1403 2484 
z
M 1172 3481 
Q 1172 3119 1398 2916 
Q 1625 2713 2034 2713 
Q 2441 2713 2670 2916 
Q 2900 3119 2900 3481 
Q 2900 3844 2670 4047 
Q 2441 4250 2034 4250 
Q 1625 4250 1398 4047 
Q 1172 3844 1172 3481 
z
" transform="scale(0.015625)"/>
     </defs>
     <use xlink:href="#DejaVuSans-74"/>
     <use xlink:href="#DejaVuSans-61" x="39.208984"/>
     <use xlink:href="#DejaVuSans-72" x="100.488281"/>
     <use xlink:href="#DejaVuSans-67" x="139.851562"/>
     <use xlink:href="#DejaVuSans-65" x="203.328125"/>
     <use xlink:href="#DejaVuSans-74" x="264.851562"/>
     <use xlink:href="#DejaVuSans-20" x="304.060547"/>
     <use xlink:href="#DejaVuSans-44" x="335.847656"/>
     <use xlink:href="#DejaVuSans-66" x="412.849609"/>
     <use xlink:href="#DejaVuSans-3a" x="444.429688"/>
     <use xlink:href="#DejaVuSans-20" x="478.121094"/>
     <use xlink:href="#DejaVuSans-31" x="509.908203"/>
     <use xlink:href="#DejaVuSans-65" x="573.53125"/>
     <use xlink:href="#DejaVuSans-2d" x="635.054688"/>
     <use xlink:href="#DejaVuSans-38" x="671.138672"/>
    </g>
   </g>
   <g id="text_12">
    <!-- v2.6.3 -->
    <g style="fill: #808080" transform="translate(222.25975 310.461512)scale(0.1 -0.1)">
     <defs>
      <path id="DejaVuSans-76" d="M 191 3500 
L 800 3500 
L 1894 563 
L 2988 3500 
L 3597 3500 
L 2284 0 
L 1503 0 
L 191 3500 
z
" transform="scale(0.015625)"/>
      <path id="DejaVuSans-2e" d="M 684 794 
L 1344 794 
L 1344 0 
L 684 0 
L 684 794 
z
" transform="scale(0.015625)"/>
      <path id="DejaVuSans-36" d="M 2113 2584 
Q 1688 2584 1439 2293 
Q 1191 2003 1191 1497 
Q 1191 994 1439 701 
Q 1688 409 2113 409 
Q 2538 409 2786 701 
Q 3034 994 3034 1497 
Q 3034 2003 2786 2293 
Q 2538 2584 2113 2584 
z
M 3366 4563 
L 3366 3988 
Q 3128 4100 2886 4159 
Q 2644 4219 2406 4219 
Q 1781 4219 1451 3797 
Q 1122 3375 1075 2522 
Q 1259 2794 1537 2939 
Q 1816 3084 2150 3084 
Q 2853 3084 3261 2657 
Q 3669 2231 3669 1497 
Q 3669 778 3244 343 
Q 2819 -91 2113 -91 
Q 1303 -91 875 529 
Q 447 1150 447 2328 
Q 447 3434 972 4092 
Q 1497 4750 2381 4750 
Q 2619 4750 2861 4703 
Q 3103 4656 3366 4563 
z
" transform="scale(0.015625)"/>
     </defs>
     <use xlink:href="#DejaVuSans-76"/>
     <use xlink:href="#DejaVuSans-32" x="59.179688"/>
     <use xlink:href="#DejaVuSans-2e" x="122.802734"/>
     <use xlink:href="#DejaVuSans-36" x="154.589844"/>
     <use xlink:href="#DejaVuSans-2e" x="218.212891"/>
     <use xlink:href="#DejaVuSans-33" x="250"/>
    </g>
   </g>
   <g id="text_13">
    <!-- 24 Lunacek bi-Rastrigin -->
    <g transform="translate(110.725437 19.56)scale(0.216 -0.216)">
     <defs>
      <path id="DejaVuSans-4c" d="M 628 4666 
L 1259 4666 
L 1259 531 
L 3531 531 
L 3531 0 
L 628 0 
L 628 4666 
z
" transform="scale(0.015625)"/>
      <path id="DejaVuSans-75" d="M 544 1381 
L 544 3500 
L 1119 3500 
L 1119 1403 
Q 1119 906 1312 657 
Q 1506 409 1894 409 
Q 2359 409 2629 706 
Q 2900 1003 2900 1516 
L 2900 3500 
L 3475 3500 
L 3475 0 
L 2900 0 
L 2900 538 
Q 2691 219 2414 64 
Q 2138 -91 1772 -91 
Q 1169 -91 856 284 
Q 544 659 544 1381 
z
M 1991 3584 
L 1991 3584 
z
" transform="scale(0.015625)"/>
      <path id="DejaVuSans-6b" d="M 581 4863 
L 1159 4863 
L 1159 1991 
L 2875 3500 
L 3609 3500 
L 1753 1863 
L 3688 0 
L 2938 0 
L 1159 1709 
L 1159 0 
L 581 0 
L 581 4863 
z
" transform="scale(0.015625)"/>
      <path id="DejaVuSans-62" d="M 3116 1747 
Q 3116 2381 2855 2742 
Q 2594 3103 2138 3103 
Q 1681 3103 1420 2742 
Q 1159 2381 1159 1747 
Q 1159 1113 1420 752 
Q 1681 391 2138 391 
Q 2594 391 2855 752 
Q 3116 1113 3116 1747 
z
M 1159 2969 
Q 1341 3281 1617 3432 
Q 1894 3584 2278 3584 
Q 2916 3584 3314 3078 
Q 3713 2572 3713 1747 
Q 3713 922 3314 415 
Q 2916 -91 2278 -91 
Q 1894 -91 1617 61 
Q 1341 213 1159 525 
L 1159 0 
L 581 0 
L 581 4863 
L 1159 4863 
L 1159 2969 
z
" transform="scale(0.015625)"/>
      <path id="DejaVuSans-52" d="M 2841 2188 
Q 3044 2119 3236 1894 
Q 3428 1669 3622 1275 
L 4263 0 
L 3584 0 
L 2988 1197 
Q 2756 1666 2539 1819 
Q 2322 1972 1947 1972 
L 1259 1972 
L 1259 0 
L 628 0 
L 628 4666 
L 2053 4666 
Q 2853 4666 3247 4331 
Q 3641 3997 3641 3322 
Q 3641 2881 3436 2590 
Q 3231 2300 2841 2188 
z
M 1259 4147 
L 1259 2491 
L 2053 2491 
Q 2509 2491 2742 2702 
Q 2975 2913 2975 3322 
Q 2975 3731 2742 3939 
Q 2509 4147 2053 4147 
L 1259 4147 
z
" transform="scale(0.015625)"/>
     </defs>
     <use xlink:href="#DejaVuSans-32"/>
     <use xlink:href="#DejaVuSans-34" x="63.623047"/>
     <use xlink:href="#DejaVuSans-20" x="127.246094"/>
     <use xlink:href="#DejaVuSans-4c" x="159.033203"/>
     <use xlink:href="#DejaVuSans-75" x="212.996094"/>
     <use xlink:href="#DejaVuSans-6e" x="276.375"/>
     <use xlink:href="#DejaVuSans-61" x="339.753906"/>
     <use xlink:href="#DejaVuSans-63" x="401.033203"/>
     <use xlink:href="#DejaVuSans-65" x="456.013672"/>
     <use xlink:href="#DejaVuSans-6b" x="517.537109"/>
     <use xlink:href="#DejaVuSans-20" x="575.447266"/>
     <use xlink:href="#DejaVuSans-62" x="607.234375"/>
     <use xlink:href="#DejaVuSans-69" x="670.710938"/>
     <use xlink:href="#DejaVuSans-2d" x="698.494141"/>
     <use xlink:href="#DejaVuSans-52" x="734.578125"/>
     <use xlink:href="#DejaVuSans-61" x="801.810547"/>
     <use xlink:href="#DejaVuSans-73" x="863.089844"/>
     <use xlink:href="#DejaVuSans-74" x="915.189453"/>
     <use xlink:href="#DejaVuSans-72" x="954.398438"/>
     <use xlink:href="#DejaVuSans-69" x="995.511719"/>
     <use xlink:href="#DejaVuSans-67" x="1023.294922"/>
     <use xlink:href="#DejaVuSans-69" x="1086.771484"/>
     <use xlink:href="#DejaVuSans-6e" x="1114.554688"/>
    </g>
   </g>
   <g id="legend_1">
    <g id="patch_7">
     <path d="M 344.952314 257.527768 
L 446.390583 257.527768 
Q 448.333845 257.527768 448.333845 255.584506 
L 448.333845 85.415494 
Q 448.333845 83.472232 446.390583 83.472232 
L 344.952314 83.472232 
Q 343.009052 83.472232 343.009052 85.415494 
L 343.009052 255.584506 
Q 343.009052 257.527768 344.952314 257.527768 
z
" style="fill: #ffffff; opacity: 0.2; stroke: #cccccc; stroke-linejoin: miter"/>
    </g>
    <g id="line2d_59">
     <path d="M 346.895576 91.340924 
L 356.611885 91.340924 
L 366.328195 91.340924 
" style="fill: none; stroke: #1874b4; stroke-width: 4; stroke-linecap: square"/>
     <defs>
      <path id="m66b9bcaa52" d="M 0 6 
C 1.591219 6 3.117479 5.367802 4.242641 4.242641 
C 5.367802 3.117479 6 1.591219 6 0 
C 6 -1.591219 5.367802 -3.117479 4.242641 -4.242641 
C 3.117479 -5.367802 1.591219 -6 0 -6 
C -1.591219 -6 -3.117479 -5.367802 -4.242641 -4.242641 
C -5.367802 -3.117479 -6 -1.591219 -6 0 
C -6 1.591219 -5.367802 3.117479 -4.242641 4.242641 
C -3.117479 5.367802 -1.591219 6 0 6 
z
" style="stroke: #1874b4; stroke-width: 3"/>
     </defs>
     <g>
      <use xlink:href="#m66b9bcaa52" x="356.611885" y="91.340924" style="fill-opacity: 0; stroke: #1874b4; stroke-width: 3"/>
     </g>
    </g>
    <g id="text_14">
     <!-- CMAES -->
     <g transform="translate(374.101242 94.741633)scale(0.097163 -0.097163)">
      <defs>
       <path id="DejaVuSans-43" d="M 4122 4306 
L 4122 3641 
Q 3803 3938 3442 4084 
Q 3081 4231 2675 4231 
Q 1875 4231 1450 3742 
Q 1025 3253 1025 2328 
Q 1025 1406 1450 917 
Q 1875 428 2675 428 
Q 3081 428 3442 575 
Q 3803 722 4122 1019 
L 4122 359 
Q 3791 134 3420 21 
Q 3050 -91 2638 -91 
Q 1578 -91 968 557 
Q 359 1206 359 2328 
Q 359 3453 968 4101 
Q 1578 4750 2638 4750 
Q 3056 4750 3426 4639 
Q 3797 4528 4122 4306 
z
" transform="scale(0.015625)"/>
       <path id="DejaVuSans-4d" d="M 628 4666 
L 1569 4666 
L 2759 1491 
L 3956 4666 
L 4897 4666 
L 4897 0 
L 4281 0 
L 4281 4097 
L 3078 897 
L 2444 897 
L 1241 4097 
L 1241 0 
L 628 0 
L 628 4666 
z
" transform="scale(0.015625)"/>
       <path id="DejaVuSans-41" d="M 2188 4044 
L 1331 1722 
L 3047 1722 
L 2188 4044 
z
M 1831 4666 
L 2547 4666 
L 4325 0 
L 3669 0 
L 3244 1197 
L 1141 1197 
L 716 0 
L 50 0 
L 1831 4666 
z
" transform="scale(0.015625)"/>
       <path id="DejaVuSans-45" d="M 628 4666 
L 3578 4666 
L 3578 4134 
L 1259 4134 
L 1259 2753 
L 3481 2753 
L 3481 2222 
L 1259 2222 
L 1259 531 
L 3634 531 
L 3634 0 
L 628 0 
L 628 4666 
z
" transform="scale(0.015625)"/>
       <path id="DejaVuSans-53" d="M 3425 4513 
L 3425 3897 
Q 3066 4069 2747 4153 
Q 2428 4238 2131 4238 
Q 1616 4238 1336 4038 
Q 1056 3838 1056 3469 
Q 1056 3159 1242 3001 
Q 1428 2844 1947 2747 
L 2328 2669 
Q 3034 2534 3370 2195 
Q 3706 1856 3706 1288 
Q 3706 609 3251 259 
Q 2797 -91 1919 -91 
Q 1588 -91 1214 -16 
Q 841 59 441 206 
L 441 856 
Q 825 641 1194 531 
Q 1563 422 1919 422 
Q 2459 422 2753 634 
Q 3047 847 3047 1241 
Q 3047 1584 2836 1778 
Q 2625 1972 2144 2069 
L 1759 2144 
Q 1053 2284 737 2584 
Q 422 2884 422 3419 
Q 422 4038 858 4394 
Q 1294 4750 2059 4750 
Q 2388 4750 2728 4690 
Q 3069 4631 3425 4513 
z
" transform="scale(0.015625)"/>
      </defs>
      <use xlink:href="#DejaVuSans-43"/>
      <use xlink:href="#DejaVuSans-4d" x="69.824219"/>
      <use xlink:href="#DejaVuSans-41" x="156.103516"/>
      <use xlink:href="#DejaVuSans-45" x="224.511719"/>
      <use xlink:href="#DejaVuSans-53" x="287.695312"/>
     </g>
    </g>
    <g id="line2d_60">
     <path d="M 346.895576 105.602645 
L 356.611885 105.602645 
L 366.328195 105.602645 
" style="fill: none; stroke: #ff7d0b; stroke-width: 3.666667; stroke-linecap: square"/>
     <defs>
      <path id="m327a23ec3a" d="M -0 8.485281 
L 5.091169 0 
L 0 -8.485281 
L -5.091169 -0 
z
" style="stroke: #ff7d0b; stroke-width: 2.5; stroke-linejoin: miter"/>
     </defs>
     <g>
      <use xlink:href="#m327a23ec3a" x="356.611885" y="105.602645" style="fill-opacity: 0; stroke: #ff7d0b; stroke-width: 2.5; stroke-linejoin: miter"/>
     </g>
    </g>
    <g id="text_15">
     <!-- GWO -->
     <g transform="translate(374.101242 109.003353)scale(0.097163 -0.097163)">
      <defs>
       <path id="DejaVuSans-47" d="M 3809 666 
L 3809 1919 
L 2778 1919 
L 2778 2438 
L 4434 2438 
L 4434 434 
Q 4069 175 3628 42 
Q 3188 -91 2688 -91 
Q 1594 -91 976 548 
Q 359 1188 359 2328 
Q 359 3472 976 4111 
Q 1594 4750 2688 4750 
Q 3144 4750 3555 4637 
Q 3966 4525 4313 4306 
L 4313 3634 
Q 3963 3931 3569 4081 
Q 3175 4231 2741 4231 
Q 1884 4231 1454 3753 
Q 1025 3275 1025 2328 
Q 1025 1384 1454 906 
Q 1884 428 2741 428 
Q 3075 428 3337 486 
Q 3600 544 3809 666 
z
" transform="scale(0.015625)"/>
       <path id="DejaVuSans-57" d="M 213 4666 
L 850 4666 
L 1831 722 
L 2809 4666 
L 3519 4666 
L 4500 722 
L 5478 4666 
L 6119 4666 
L 4947 0 
L 4153 0 
L 3169 4050 
L 2175 0 
L 1381 0 
L 213 4666 
z
" transform="scale(0.015625)"/>
       <path id="DejaVuSans-4f" d="M 2522 4238 
Q 1834 4238 1429 3725 
Q 1025 3213 1025 2328 
Q 1025 1447 1429 934 
Q 1834 422 2522 422 
Q 3209 422 3611 934 
Q 4013 1447 4013 2328 
Q 4013 3213 3611 3725 
Q 3209 4238 2522 4238 
z
M 2522 4750 
Q 3503 4750 4090 4092 
Q 4678 3434 4678 2328 
Q 4678 1225 4090 567 
Q 3503 -91 2522 -91 
Q 1538 -91 948 565 
Q 359 1222 359 2328 
Q 359 3434 948 4092 
Q 1538 4750 2522 4750 
z
" transform="scale(0.015625)"/>
      </defs>
      <use xlink:href="#DejaVuSans-47"/>
      <use xlink:href="#DejaVuSans-57" x="77.490234"/>
      <use xlink:href="#DejaVuSans-4f" x="176.367188"/>
     </g>
    </g>
    <g id="line2d_61">
     <path d="M 346.895576 119.864365 
L 356.611885 119.864365 
L 366.328195 119.864365 
" style="fill: none; stroke: #22a022; stroke-width: 3.333333; stroke-linecap: square"/>
     <defs>
      <path id="m297ec897e2" d="M 0 -6 
L -1.347084 -1.854102 
L -5.706339 -1.854102 
L -2.179628 0.708204 
L -3.526712 4.854102 
L -0 2.291796 
L 3.526712 4.854102 
L 2.179628 0.708204 
L 5.706339 -1.854102 
L 1.347084 -1.854102 
z
" style="stroke: #22a022; stroke-width: 2; stroke-linejoin: bevel"/>
     </defs>
     <g>
      <use xlink:href="#m297ec897e2" x="356.611885" y="119.864365" style="fill-opacity: 0; stroke: #22a022; stroke-width: 2; stroke-linejoin: bevel"/>
     </g>
    </g>
    <g id="text_16">
     <!-- LBFGSB -->
     <g transform="translate(374.101242 123.265073)scale(0.097163 -0.097163)">
      <defs>
       <path id="DejaVuSans-42" d="M 1259 2228 
L 1259 519 
L 2272 519 
Q 2781 519 3026 730 
Q 3272 941 3272 1375 
Q 3272 1813 3026 2020 
Q 2781 2228 2272 2228 
L 1259 2228 
z
M 1259 4147 
L 1259 2741 
L 2194 2741 
Q 2656 2741 2882 2914 
Q 3109 3088 3109 3444 
Q 3109 3797 2882 3972 
Q 2656 4147 2194 4147 
L 1259 4147 
z
M 628 4666 
L 2241 4666 
Q 2963 4666 3353 4366 
Q 3744 4066 3744 3513 
Q 3744 3084 3544 2831 
Q 3344 2578 2956 2516 
Q 3422 2416 3680 2098 
Q 3938 1781 3938 1306 
Q 3938 681 3513 340 
Q 3088 0 2303 0 
L 628 0 
L 628 4666 
z
" transform="scale(0.015625)"/>
       <path id="DejaVuSans-46" d="M 628 4666 
L 3309 4666 
L 3309 4134 
L 1259 4134 
L 1259 2759 
L 3109 2759 
L 3109 2228 
L 1259 2228 
L 1259 0 
L 628 0 
L 628 4666 
z
" transform="scale(0.015625)"/>
      </defs>
      <use xlink:href="#DejaVuSans-4c"/>
      <use xlink:href="#DejaVuSans-42" x="55.712891"/>
      <use xlink:href="#DejaVuSans-46" x="124.316406"/>
      <use xlink:href="#DejaVuSans-47" x="181.835938"/>
      <use xlink:href="#DejaVuSans-53" x="259.326172"/>
      <use xlink:href="#DejaVuSans-42" x="322.802734"/>
     </g>
    </g>
    <g id="line2d_62">
     <path d="M 346.895576 134.126085 
L 356.611885 134.126085 
L 366.328195 134.126085 
" style="fill: none; stroke: #d61e1f; stroke-width: 3; stroke-linecap: square"/>
     <defs>
      <path id="m39af228ec8" d="M -2 6 
L 2 6 
L 2 2 
L 6 2 
L 6 -2 
L 2 -2 
L 2 -6 
L -2 -6 
L -2 -2 
L -6 -2 
L -6 2 
L -2 2 
z
" style="stroke: #d61e1f; stroke-width: 1.5; stroke-linejoin: miter"/>
     </defs>
     <g>
      <use xlink:href="#m39af228ec8" x="356.611885" y="134.126085" style="fill-opacity: 0; stroke: #d61e1f; stroke-width: 1.5; stroke-linejoin: miter"/>
     </g>
    </g>
    <g id="text_17">
     <!-- Spiral-LSHADE -->
     <g transform="translate(374.101242 137.526793)scale(0.097163 -0.097163)">
      <defs>
       <path id="DejaVuSans-70" d="M 1159 525 
L 1159 -1331 
L 581 -1331 
L 581 3500 
L 1159 3500 
L 1159 2969 
Q 1341 3281 1617 3432 
Q 1894 3584 2278 3584 
Q 2916 3584 3314 3078 
Q 3713 2572 3713 1747 
Q 3713 922 3314 415 
Q 2916 -91 2278 -91 
Q 1894 -91 1617 61 
Q 1341 213 1159 525 
z
M 3116 1747 
Q 3116 2381 2855 2742 
Q 2594 3103 2138 3103 
Q 1681 3103 1420 2742 
Q 1159 2381 1159 1747 
Q 1159 1113 1420 752 
Q 1681 391 2138 391 
Q 2594 391 2855 752 
Q 3116 1113 3116 1747 
z
" transform="scale(0.015625)"/>
       <path id="DejaVuSans-6c" d="M 603 4863 
L 1178 4863 
L 1178 0 
L 603 0 
L 603 4863 
z
" transform="scale(0.015625)"/>
       <path id="DejaVuSans-48" d="M 628 4666 
L 1259 4666 
L 1259 2753 
L 3553 2753 
L 3553 4666 
L 4184 4666 
L 4184 0 
L 3553 0 
L 3553 2222 
L 1259 2222 
L 1259 0 
L 628 0 
L 628 4666 
z
" transform="scale(0.015625)"/>
      </defs>
      <use xlink:href="#DejaVuSans-53"/>
      <use xlink:href="#DejaVuSans-70" x="63.476562"/>
      <use xlink:href="#DejaVuSans-69" x="126.953125"/>
      <use xlink:href="#DejaVuSans-72" x="154.736328"/>
      <use xlink:href="#DejaVuSans-61" x="195.849609"/>
      <use xlink:href="#DejaVuSans-6c" x="257.128906"/>
      <use xlink:href="#DejaVuSans-2d" x="284.912109"/>
      <use xlink:href="#DejaVuSans-4c" x="320.996094"/>
      <use xlink:href="#DejaVuSans-53" x="376.708984"/>
      <use xlink:href="#DejaVuSans-48" x="440.185547"/>
      <use xlink:href="#DejaVuSans-41" x="515.380859"/>
      <use xlink:href="#DejaVuSans-44" x="583.789062"/>
      <use xlink:href="#DejaVuSans-45" x="660.791016"/>
     </g>
    </g>
    <g id="line2d_63">
     <path d="M 346.895576 148.387805 
L 356.611885 148.387805 
L 366.328195 148.387805 
" style="fill: none; stroke: #8a52bd; stroke-width: 2.666667; stroke-linecap: square"/>
     <defs>
      <path id="ma592cf04d2" d="M 0 -6 
L -5.706339 -1.854102 
L -3.526712 4.854102 
L 3.526712 4.854102 
L 5.706339 -1.854102 
z
" style="stroke: #8a52bd; stroke-linejoin: miter"/>
     </defs>
     <g>
      <use xlink:href="#ma592cf04d2" x="356.611885" y="148.387805" style="fill-opacity: 0; stroke: #8a52bd; stroke-linejoin: miter"/>
     </g>
    </g>
    <g id="text_18">
     <!-- SciPyDE -->
     <g transform="translate(374.101242 151.788514)scale(0.097163 -0.097163)">
      <defs>
       <path id="DejaVuSans-50" d="M 1259 4147 
L 1259 2394 
L 2053 2394 
Q 2494 2394 2734 2622 
Q 2975 2850 2975 3272 
Q 2975 3691 2734 3919 
Q 2494 4147 2053 4147 
L 1259 4147 
z
M 628 4666 
L 2053 4666 
Q 2838 4666 3239 4311 
Q 3641 3956 3641 3272 
Q 3641 2581 3239 2228 
Q 2838 1875 2053 1875 
L 1259 1875 
L 1259 0 
L 628 0 
L 628 4666 
z
" transform="scale(0.015625)"/>
       <path id="DejaVuSans-79" d="M 2059 -325 
Q 1816 -950 1584 -1140 
Q 1353 -1331 966 -1331 
L 506 -1331 
L 506 -850 
L 844 -850 
Q 1081 -850 1212 -737 
Q 1344 -625 1503 -206 
L 1606 56 
L 191 3500 
L 800 3500 
L 1894 763 
L 2988 3500 
L 3597 3500 
L 2059 -325 
z
" transform="scale(0.015625)"/>
      </defs>
      <use xlink:href="#DejaVuSans-53"/>
      <use xlink:href="#DejaVuSans-63" x="63.476562"/>
      <use xlink:href="#DejaVuSans-69" x="118.457031"/>
      <use xlink:href="#DejaVuSans-50" x="146.240234"/>
      <use xlink:href="#DejaVuSans-79" x="206.542969"/>
      <use xlink:href="#DejaVuSans-44" x="265.722656"/>
      <use xlink:href="#DejaVuSans-45" x="342.724609"/>
     </g>
    </g>
    <g id="line2d_64">
     <path d="M 346.895576 162.649526 
L 356.611885 162.649526 
L 366.328195 162.649526 
" style="fill: none; stroke: #8c493c; stroke-width: 2.333333; stroke-linecap: square"/>
     <defs>
      <path id="m365b18091c" d="M -0 6 
L 6 -6 
L -6 -6 
z
" style="stroke: #8c493c; stroke-linejoin: miter"/>
     </defs>
     <g>
      <use xlink:href="#m365b18091c" x="356.611885" y="162.649526" style="fill-opacity: 0; stroke: #8c493c; stroke-linejoin: miter"/>
     </g>
    </g>
    <g id="text_19">
     <!-- PSO -->
     <g transform="translate(374.101242 166.050234)scale(0.097163 -0.097163)">
      <use xlink:href="#DejaVuSans-50"/>
      <use xlink:href="#DejaVuSans-53" x="60.302734"/>
      <use xlink:href="#DejaVuSans-4f" x="123.779297"/>
     </g>
    </g>
    <g id="line2d_65">
     <path d="M 346.895576 176.911246 
L 356.611885 176.911246 
L 366.328195 176.911246 
" style="fill: none; stroke: #e35fbb; stroke-width: 2; stroke-linecap: square"/>
     <defs>
      <path id="m5c924b6353" d="M -3 6 
L 0 3 
L 3 6 
L 6 3 
L 3 0 
L 6 -3 
L 3 -6 
L 0 -3 
L -3 -6 
L -6 -3 
L -3 0 
L -6 3 
z
" style="stroke: #e35fbb; stroke-linejoin: miter"/>
     </defs>
     <g>
      <use xlink:href="#m5c924b6353" x="356.611885" y="176.911246" style="fill-opacity: 0; stroke: #e35fbb; stroke-linejoin: miter"/>
     </g>
    </g>
    <g id="text_20">
     <!-- SSA -->
     <g transform="translate(374.101242 180.311954)scale(0.097163 -0.097163)">
      <use xlink:href="#DejaVuSans-53"/>
      <use xlink:href="#DejaVuSans-53" x="63.476562"/>
      <use xlink:href="#DejaVuSans-41" x="128.828125"/>
     </g>
    </g>
    <g id="line2d_66">
     <path d="M 346.895576 191.172966 
L 356.611885 191.172966 
L 366.328195 191.172966 
" style="fill: none; stroke: #11bdcf; stroke-width: 2; stroke-linecap: square"/>
     <defs>
      <path id="m4f829c1e15" d="M 0 -6 
L -6 6 
L 6 6 
z
" style="stroke: #11bdcf; stroke-linejoin: miter"/>
     </defs>
     <g>
      <use xlink:href="#m4f829c1e15" x="356.611885" y="191.172966" style="fill-opacity: 0; stroke: #11bdcf; stroke-linejoin: miter"/>
     </g>
    </g>
    <g id="text_21">
     <!-- GA -->
     <g transform="translate(374.101242 194.573674)scale(0.097163 -0.097163)">
      <use xlink:href="#DejaVuSans-47"/>
      <use xlink:href="#DejaVuSans-41" x="77.490234"/>
     </g>
    </g>
    <g id="line2d_67">
     <path d="M 346.895576 205.434687 
L 356.611885 205.434687 
L 366.328195 205.434687 
" style="fill: none; stroke: #7f7f7f; stroke-width: 2; stroke-linecap: square"/>
     <g>
      <use xlink:href="#ma421d33858" x="356.611885" y="205.434687" style="fill-opacity: 0; stroke: #7f7f7f; stroke-linejoin: miter"/>
     </g>
    </g>
    <g id="text_22">
     <!-- LSHADE -->
     <g transform="translate(374.101242 208.835395)scale(0.097163 -0.097163)">
      <use xlink:href="#DejaVuSans-4c"/>
      <use xlink:href="#DejaVuSans-53" x="55.712891"/>
      <use xlink:href="#DejaVuSans-48" x="119.189453"/>
      <use xlink:href="#DejaVuSans-41" x="194.384766"/>
      <use xlink:href="#DejaVuSans-44" x="262.792969"/>
      <use xlink:href="#DejaVuSans-45" x="339.794922"/>
     </g>
    </g>
    <g id="line2d_68">
     <path d="M 346.895576 219.696407 
L 356.611885 219.696407 
L 366.328195 219.696407 
" style="fill: none; stroke: #bcbd1a; stroke-width: 2; stroke-linecap: square"/>
     <defs>
      <path id="mdfc5a7a908" d="M -6 -0 
L 6 6 
L 6 -6 
z
" style="stroke: #bcbd1a; stroke-linejoin: miter"/>
     </defs>
     <g>
      <use xlink:href="#mdfc5a7a908" x="356.611885" y="219.696407" style="fill-opacity: 0; stroke: #bcbd1a; stroke-linejoin: miter"/>
     </g>
    </g>
    <g id="text_23">
     <!-- NLSHADE RSP -->
     <g transform="translate(374.101242 223.097115)scale(0.097163 -0.097163)">
      <defs>
       <path id="DejaVuSans-4e" d="M 628 4666 
L 1478 4666 
L 3547 763 
L 3547 4666 
L 4159 4666 
L 4159 0 
L 3309 0 
L 1241 3903 
L 1241 0 
L 628 0 
L 628 4666 
z
" transform="scale(0.015625)"/>
      </defs>
      <use xlink:href="#DejaVuSans-4e"/>
      <use xlink:href="#DejaVuSans-4c" x="74.804688"/>
      <use xlink:href="#DejaVuSans-53" x="130.517578"/>
      <use xlink:href="#DejaVuSans-48" x="193.994141"/>
      <use xlink:href="#DejaVuSans-41" x="269.189453"/>
      <use xlink:href="#DejaVuSans-44" x="337.597656"/>
      <use xlink:href="#DejaVuSans-45" x="414.599609"/>
      <use xlink:href="#DejaVuSans-20" x="477.783203"/>
      <use xlink:href="#DejaVuSans-52" x="509.570312"/>
      <use xlink:href="#DejaVuSans-53" x="579.052734"/>
      <use xlink:href="#DejaVuSans-50" x="642.529297"/>
     </g>
    </g>
    <g id="line2d_69">
     <path d="M 346.895576 233.958127 
L 356.611885 233.958127 
L 366.328195 233.958127 
" style="fill: none; stroke-dasharray: 7.4,3.2; stroke-dashoffset: 0; stroke: #440154; stroke-width: 2"/>
     <defs>
      <path id="m23a4f34f35" d="M 6 0 
L -6 -6 
L -6 6 
z
" style="stroke: #440154; stroke-linejoin: miter"/>
     </defs>
     <g>
      <use xlink:href="#m23a4f34f35" x="356.611885" y="233.958127" style="fill-opacity: 0; stroke: #440154; stroke-linejoin: miter"/>
     </g>
    </g>
    <g id="text_24">
     <!-- JADE -->
     <g transform="translate(374.101242 237.358835)scale(0.097163 -0.097163)">
      <defs>
       <path id="DejaVuSans-4a" d="M 628 4666 
L 1259 4666 
L 1259 325 
Q 1259 -519 939 -900 
Q 619 -1281 -91 -1281 
L -331 -1281 
L -331 -750 
L -134 -750 
Q 284 -750 456 -515 
Q 628 -281 628 325 
L 628 4666 
z
" transform="scale(0.015625)"/>
      </defs>
      <use xlink:href="#DejaVuSans-4a"/>
      <use xlink:href="#DejaVuSans-41" x="27.742188"/>
      <use xlink:href="#DejaVuSans-44" x="96.150391"/>
      <use xlink:href="#DejaVuSans-45" x="173.152344"/>
     </g>
    </g>
    <g id="line2d_70">
     <path d="M 346.895576 248.219847 
L 356.611885 248.219847 
L 366.328195 248.219847 
" style="fill: none; stroke-dasharray: 7.4,3.2; stroke-dashoffset: 0; stroke: #2500bb; stroke-width: 2"/>
     <defs>
      <path id="mf33df6035a" d="M 0 6 
C 1.591219 6 3.117479 5.367802 4.242641 4.242641 
C 5.367802 3.117479 6 1.591219 6 0 
C 6 -1.591219 5.367802 -3.117479 4.242641 -4.242641 
C 3.117479 -5.367802 1.591219 -6 0 -6 
C -1.591219 -6 -3.117479 -5.367802 -4.242641 -4.242641 
C -5.367802 -3.117479 -6 -1.591219 -6 0 
C -6 1.591219 -5.367802 3.117479 -4.242641 4.242641 
C -3.117479 5.367802 -1.591219 6 0 6 
z
" style="stroke: #2500bb"/>
     </defs>
     <g>
      <use xlink:href="#mf33df6035a" x="356.611885" y="248.219847" style="fill-opacity: 0; stroke: #2500bb"/>
     </g>
    </g>
    <g id="text_25">
     <!-- jSO -->
     <g transform="translate(374.101242 251.620556)scale(0.097163 -0.097163)">
      <defs>
       <path id="DejaVuSans-6a" d="M 603 3500 
L 1178 3500 
L 1178 -63 
Q 1178 -731 923 -1031 
Q 669 -1331 103 -1331 
L -116 -1331 
L -116 -844 
L 38 -844 
Q 366 -844 484 -692 
Q 603 -541 603 -63 
L 603 3500 
z
M 603 4863 
L 1178 4863 
L 1178 4134 
L 603 4134 
L 603 4863 
z
" transform="scale(0.015625)"/>
      </defs>
      <use xlink:href="#DejaVuSans-6a"/>
      <use xlink:href="#DejaVuSans-53" x="27.783203"/>
      <use xlink:href="#DejaVuSans-4f" x="91.259766"/>
     </g>
    </g>
   </g>
  </g>
 </g>
 <defs>
  <clipPath id="p6cb4a83b9f">
   <rect x="22.69" y="25.56" width="430.502" height="289.88"/>
  </clipPath>
 </defs>
</svg>
